HIERARCHY
ROOT Character1_Hips
{
  OFFSET 21.7621 96.3201 23.3137
  CHANNELS 6 Xposition Yposition Zposition Zrotation Xrotation Yrotation
  JOINT Character1_Spine
  {
    OFFSET 0 8.754 -1.339
    CHANNELS 3 Zrotation Xrotation Yrotation
    JOINT Character1_Spine1
    {
      OFFSET 0 10.855 -0.645
      CHANNELS 3 Zrotation Xrotation Yrotation
      JOINT Character1_LeftShoulder
      {
        OFFSET 1.467 27.745 1.178
        CHANNELS 3 Zrotation Xrotation Yrotation
        JOINT Character1_LeftArm
        {
          OFFSET 18.486 -1.858 0.275
          CHANNELS 3 Zrotation Xrotation Yrotation
          JOINT Character1_LeftForeArm
          {
            OFFSET 32.391 -1.079 3.409
            CHANNELS 3 Zrotation Xrotation Yrotation
            JOINT Character1_LeftHand
            {
              OFFSET 28.678 -2.281 2.112
              CHANNELS 3 Zrotation Xrotation Yrotation
              End Site
              {
                OFFSET -0.000241878 -0.00028536 -9.11487e-005
              }
            }
            JOINT L_Radius
            {
              OFFSET -8.94447e-005 -0.392541 -0.0893675
              CHANNELS 3 Zrotation Xrotation Yrotation
              End Site
              {
                OFFSET 0 0 0
              }
            }
          }
          JOINT L_Humerus
          {
            OFFSET 42.9881 15.7281 -23.1008
            CHANNELS 3 Zrotation Xrotation Yrotation
            End Site
            {
              OFFSET 0 0 0
            }
          }
        }
        JOINT L_Shoulder
        {
          OFFSET 3.24498e-005 -0.000608592 -0.000527677
          CHANNELS 3 Zrotation Xrotation Yrotation
          End Site
          {
            OFFSET 0 0 0
          }
        }
      }
      JOINT Character1_RightShoulder
      {
        OFFSET -1.467 27.745 1.178
        CHANNELS 3 Zrotation Xrotation Yrotation
        JOINT Character1_RightArm
        {
          OFFSET -18.486 -1.858 0.275
          CHANNELS 3 Zrotation Xrotation Yrotation
          JOINT Character1_RightForeArm
          {
            OFFSET -32.391 -1.079 3.409
            CHANNELS 3 Zrotation Xrotation Yrotation
            JOINT Character1_RightHand
            {
              OFFSET -28.678 -2.281 2.112
              CHANNELS 3 Zrotation Xrotation Yrotation
              End Site
              {
                OFFSET 0.000589556 -0.000254961 0.000258925
              }
            }
            JOINT R_Radius
            {
              OFFSET 0.000437123 -0.392512 -0.0890171
              CHANNELS 3 Zrotation Xrotation Yrotation
              End Site
              {
                OFFSET 0 0 0
              }
            }
          }
          JOINT R_Humerus
          {
            OFFSET -42.9874 15.7281 -23.1005
            CHANNELS 3 Zrotation Xrotation Yrotation
            End Site
            {
              OFFSET 0 0 0
            }
          }
        }
        JOINT R_Shoulder
        {
          OFFSET -3.24498e-005 -0.000608592 -0.000527677
          CHANNELS 3 Zrotation Xrotation Yrotation
          End Site
          {
            OFFSET 0 0 0
          }
        }
      }
      JOINT Character1_Neck
      {
        OFFSET 0 30.836 0.626
        CHANNELS 3 Zrotation Xrotation Yrotation
        JOINT Character1_Head
        {
          OFFSET 0 8.074 3.498
          CHANNELS 3 Zrotation Xrotation Yrotation
          End Site
          {
            OFFSET 0 -0.00153379 1.54668e-005
          }
        }
        JOINT Neck
        {
          OFFSET 0 -0.00129288 7.21346e-005
          CHANNELS 3 Zrotation Xrotation Yrotation
          End Site
          {
            OFFSET 0 0 0
          }
        }
      }
      JOINT Torso
      {
        OFFSET 0 -0.000828813 -0.000380861
        CHANNELS 3 Zrotation Xrotation Yrotation
        End Site
        {
          OFFSET 0 0 0
        }
      }
    }
    JOINT Spine
    {
      OFFSET 0 -0.000399752 -0.000169496
      CHANNELS 3 Zrotation Xrotation Yrotation
      End Site
      {
        OFFSET 0 0 0
      }
    }
  }
  JOINT Character1_RightUpLeg
  {
    OFFSET -9.035 -4.63425 1.845
    CHANNELS 3 Zrotation Xrotation Yrotation
    JOINT Character1_RightLeg
    {
      OFFSET -0.919521 -40.345 1.155
      CHANNELS 3 Zrotation Xrotation Yrotation
      JOINT Character1_RightFoot
      {
        OFFSET 1.95452 -45.2655 -4.18888
        CHANNELS 3 Zrotation Xrotation Yrotation
        JOINT Character1_RightToeBase
        {
          OFFSET 1.87056 -6.69517 14.7145
          CHANNELS 3 Zrotation Xrotation Yrotation
          End Site
          {
            OFFSET 0 0 0
          }
        }
        JOINT R_Foot
        {
          OFFSET 8 -7.75529 4.18888
          CHANNELS 3 Zrotation Xrotation Yrotation
          End Site
          {
            OFFSET 0 0 0
          }
        }
      }
      JOINT R_Tibia
      {
        OFFSET 0 0 0
        CHANNELS 3 Zrotation Xrotation Yrotation
        End Site
        {
          OFFSET 0 0 0
        }
      }
    }
    JOINT R_Femur
    {
      OFFSET 0 0 0
      CHANNELS 3 Zrotation Xrotation Yrotation
      End Site
      {
        OFFSET 0 0 0
      }
    }
  }
  JOINT Character1_LeftUpLeg
  {
    OFFSET 9.035 -4.63425 1.845
    CHANNELS 3 Zrotation Xrotation Yrotation
    JOINT Character1_LeftLeg
    {
      OFFSET 0.919521 -40.345 1.155
      CHANNELS 3 Zrotation Xrotation Yrotation
      JOINT Character1_LeftFoot
      {
        OFFSET -1.95452 -45.2655 -4.18888
        CHANNELS 3 Zrotation Xrotation Yrotation
        JOINT Character1_LeftToeBase
        {
          OFFSET -1.87056 -6.69517 14.7145
          CHANNELS 3 Zrotation Xrotation Yrotation
          End Site
          {
            OFFSET 0 0 0
          }
        }
        JOINT L_Foot
        {
          OFFSET -8 -7.75529 4.18888
          CHANNELS 3 Zrotation Xrotation Yrotation
          End Site
          {
            OFFSET 0 0 0
          }
        }
      }
      JOINT L_Tibia
      {
        OFFSET 0 0 0
        CHANNELS 3 Zrotation Xrotation Yrotation
        End Site
        {
          OFFSET 0 0 0
        }
      }
    }
    JOINT L_Femur
    {
      OFFSET 0 0 0
      CHANNELS 3 Zrotation Xrotation Yrotation
      End Site
      {
        OFFSET 0 0 0
      }
    }
  }
  JOINT Pelvis
  {
    OFFSET 0 0 0
    CHANNELS 3 Zrotation Xrotation Yrotation
    End Site
    {
      OFFSET 0 0 0
    }
  }
}
MOTION
Frames:	9
Frame Time:	0.00833333
25.4402 94.2811 17.0156 -5.55314 4.25069 -9.78498 1.49089e-015 7.95139e-016 -1.59028e-015 4.18761 16.0522 -0.876742 -3.97569e-016 3.18055e-015 -0 -24.8067 -2.21488 21.9561 13.0141 -6.1857 -23.5906 0.112461 -9.51977 1.35047 0 20 -0 83 -6.36111e-015 -85 -3.97569e-016 3.18055e-015 -0 -3.97569e-016 3.18055e-015 -0 29.0184 1.28859 -22.2353 -16.6619 -9.31705 31.0828 -0.0199433 4.24926 0.598307 1.75404e-017 20 1.69234e-015 -83 3.18055e-015 85 -3.97569e-016 3.18055e-015 -0 -3.97569e-016 3.18055e-015 -0 -0.694262 21.7948 -1.52115 -2.42213 3.4631 -0.502819 -3.97569e-016 3.18055e-015 -0 4.43812 17.5132 -0.80174 177.308 -79.4453 168.101 -172.577 82.3261 173.378 -5.18063 51.2829 6.96395 -0.00641755 -7.68869 -0.135044 1.76556e-031 1.27222e-014 -7.95139e-016 3.88251e-016 4.96962e-017 -0 -1.10348e-032 3.18055e-015 1.98785e-016 -1.49971 -19.1126 1.21396 -0.195439 32.4759 -0.362563 2.19922 -14.5245 6.69277 3.38959 12.6863 -1.08353 -3.72721e-016 -1.19271e-015 -0 3.53113e-031 -6.36111e-015 3.18055e-015 2.78299e-015 3.18055e-015 1.59028e-015 1.49089e-015 7.95139e-016 -1.59028e-015 
25.4424 94.2812 16.9856 -5.54216 4.21429 -9.78682 -1.98785e-016 -7.95139e-016 -6.36111e-015 4.1938 15.8472 -0.78833 8.82781e-032 -3.18055e-015 1.59028e-015 -24.5167 -2.38455 21.9326 12.8988 -6.09929 -23.3637 0.0989683 -8.93675 1.26638 -3.94061e-015 20 3.38468e-015 83 -3.18055e-015 -85 -3.97569e-016 -6.36111e-015 -0 8.82781e-032 -3.18055e-015 1.59028e-015 28.8545 1.32943 -22.4189 -16.6204 -9.27669 30.9936 -0.0237476 4.48484 0.631599 7.95139e-016 20 -0 -83 -3.18055e-015 85 -3.97569e-016 -6.36111e-015 -0 8.82781e-032 -3.18055e-015 1.59028e-015 -0.581118 22.0454 -1.69674 -2.40482 3.38724 -0.526017 8.82781e-032 -3.18055e-015 1.59028e-015 4.50257 17.5916 -0.824594 177.141 -79.3795 167.952 -172.545 82.3649 173.346 -5.99284 51.3071 8.03972 -0.00923705 -8.20436 -0.144205 -3.97569e-016 3.18055e-015 -0 3.93881e-016 -5.28022e-017 -0 -1.10348e-032 1.59028e-015 3.97569e-016 -1.47239 -19.1532 1.30483 -0.188942 32.5668 -0.367337 2.18689 -14.6392 6.59205 3.07237 12.9703 -1.01428 -1.2424e-016 3.97569e-016 -3.97569e-016 -3.97569e-016 3.18055e-015 -1.59028e-015 -1.19271e-015 0 -0 -1.98785e-016 -7.95139e-016 -6.36111e-015 
25.4413 94.2779 16.9451 -5.55504 4.22178 -9.78727 9.93923e-016 7.95139e-016 -0 4.23352 15.9441 -0.803394 -1.19271e-015 -3.18055e-015 -1.59028e-015 -24.1608 -3.07549 21.831 12.8482 -6.06162 -23.2642 0.0965676 -8.82844 1.25077 -7.95139e-016 20 -0 83 -3.18055e-015 -85 -1.19271e-015 -3.18055e-015 -0 -1.19271e-015 -3.18055e-015 -1.59028e-015 28.6561 1.18777 -22.2674 -16.5784 -9.2359 30.9035 -0.0276884 4.72367 0.665392 8.85761e-016 20 -8.46169e-016 -83 -3.18055e-015 85 -1.19271e-015 -3.18055e-015 -0 -1.19271e-015 -3.18055e-015 -1.59028e-015 -0.764147 21.8514 -1.62051 -2.36935 3.37539 -0.540511 -1.19271e-015 -3.18055e-015 -1.59028e-015 4.5789 17.6297 -0.811389 176.899 -79.3955 167.726 -172.369 82.5626 173.172 -6.35044 51.573 8.48295 -0.0105988 -8.4123 -0.147881 1.98785e-016 6.36111e-015 -1.98785e-016 -7.45443e-016 -1.2424e-016 -3.18055e-015 0 0 -3.97569e-016 -1.4211 -19.2325 1.37975 -0.18359 32.6803 -0.372262 2.17711 -14.7053 6.52261 2.87017 12.9495 -0.956444 -5.96354e-016 7.95139e-016 -3.97569e-016 2.78299e-015 0 -0 3.97569e-016 0 -1.59028e-015 9.93923e-016 7.95139e-016 -0 
25.424 94.2747 16.8894 -5.74004 4.28466 -9.78702 -1.68967e-015 0 1.59028e-015 4.46067 16.1122 -0.781866 -3.97569e-016 0 -0 -24.1236 -3.00418 21.7447 12.9127 -6.10971 -23.391 0.106787 -9.27939 1.31578 -2.7479e-015 20 3.38468e-015 83 3.18055e-015 -85 -0 0 3.18055e-015 -3.97569e-016 0 -0 28.3735 0.83002 -22.0222 -16.4718 -9.13306 30.6752 -0.0288997 4.84764 0.682938 -2.5842e-015 20 -0 -83 6.36111e-015 85 -0 0 3.18055e-015 -3.97569e-016 0 -0 -1.04412 21.5036 -1.55599 -2.31906 3.4048 -0.54871 -3.97569e-016 0 -0 4.66833 17.6428 -0.777238 176.535 -79.4569 167.182 -172.152 82.7923 172.956 -7.03444 51.6363 9.37648 -0.0144406 -9.07381 -0.15966 -1.98785e-016 3.18055e-015 -0 -9.06955e-016 -4.96962e-017 -0 0 0 -0 -1.16092 -19.3571 1.47025 -0.182441 32.7837 -0.377049 2.15306 -14.7141 6.42154 3.01107 13.0043 -0.999352 1.54058e-015 3.97569e-016 7.95139e-016 1.98785e-015 -6.36111e-015 -1.59028e-015 -3.97569e-016 1.59028e-015 -1.59028e-015 -1.68967e-015 0 1.59028e-015 
25.418 94.2714 16.822 -5.81487 4.33339 -9.78434 -1.19271e-015 7.95139e-016 -1.59028e-015 4.58349 16.2642 -0.699394 -1.19271e-015 0 1.59028e-015 -24.1451 -2.70451 21.6071 12.9641 -6.14811 -23.492 0.108989 -9.37342 1.32937 -3.97569e-016 20 -0 83 6.36111e-015 -85 -7.95139e-016 6.36111e-015 1.59028e-015 -1.19271e-015 0 1.59028e-015 28.0973 0.38355 -21.8776 -16.3547 -9.02107 30.4251 -0.031679 5.07371 0.714945 4.57205e-015 20 -0 -83 6.36111e-015 85 -7.95139e-016 6.36111e-015 1.59028e-015 -1.19271e-015 0 1.59028e-015 -1.1665 21.1574 -1.59358 -2.27588 3.4424 -0.554405 -1.19271e-015 0 1.59028e-015 4.75032 17.6487 -0.747226 176.313 -79.4214 166.874 -171.965 82.9783 172.772 -7.95468 51.6032 10.5905 -0.0204753 -10.0496 -0.177269 -6.95746e-016 -6.36111e-015 3.47873e-016 0 0 -2.38542e-015 -1.59028e-015 0 1.98785e-016 -1.01208 -19.258 1.56836 -0.176567 32.6236 -0.389234 2.12238 -14.6194 6.33115 3.1845 12.926 -1.04274 -1.01877e-015 -3.97569e-016 -0 3.97569e-016 3.18055e-015 -0 3.57812e-015 0 -0 -1.19271e-015 7.95139e-016 -1.59028e-015 
25.4265 94.2382 16.7598 -5.73161 4.35857 -9.77324 1.09332e-015 7.95139e-016 1.59028e-015 4.54379 16.2361 -0.687872 -2.64834e-031 -9.54166e-015 -1.59028e-015 -24.1398 -2.35431 21.6675 13.2143 -6.3376 -23.9862 0.121481 -9.89001 1.40406 -1.98785e-015 20 -0 83 -3.18055e-015 -85 -3.97569e-016 -6.36111e-015 -1.59028e-015 -2.64834e-031 -9.54166e-015 -1.59028e-015 27.8814 0.125413 -21.8416 -16.2438 -8.91584 30.1892 -0.0395787 5.66932 0.799396 9.06221e-017 20 -8.46169e-016 -83 9.54166e-015 85 -3.97569e-016 -6.36111e-015 -1.59028e-015 -2.64834e-031 -9.54166e-015 -1.59028e-015 -1.1296 21.0213 -1.65427 -2.26173 3.45508 -0.561385 -2.64834e-031 -9.54166e-015 -1.59028e-015 4.80436 17.6653 -0.746436 176.443 -79.2068 167.111 -171.944 83.0096 172.741 -8.18144 51.804 10.8582 -0.0222857 -10.2991 -0.181706 1.49089e-016 0 5.96354e-016 -4.96962e-017 0 -7.95139e-016 -1.59028e-015 0 -1.98785e-016 -1.03831 -19.6554 1.70668 -0.165388 32.9543 -0.384876 2.08836 -14.5552 6.22605 3.29608 12.4167 -1.03834 -3.47873e-016 -3.97569e-016 3.97569e-016 2.78299e-015 -3.18055e-015 -0 1.59028e-015 0 -1.59028e-015 1.09332e-015 7.95139e-016 1.59028e-015 
25.4386 94.2037 16.7029 -5.64019 4.37924 -9.66208 -9.93923e-017 7.95139e-016 -3.18055e-015 4.51458 16.0684 -0.853977 3.97569e-016 3.18055e-015 -1.59028e-015 -24.155 -1.89916 21.7919 13.5391 -6.58844 -24.6312 0.143188 -10.725 1.52535 -9.76383e-016 20 1.69234e-015 83 0 -85 3.97569e-016 3.18055e-015 -0 3.97569e-016 3.18055e-015 -1.59028e-015 27.6842 0.140634 -21.8504 -16.1955 -8.87011 30.0863 -0.0448001 6.02941 0.850554 1.39149e-015 20 -0 -83 0 85 3.97569e-016 3.18055e-015 -0 3.97569e-016 3.18055e-015 -1.59028e-015 -1.08842 21.111 -1.67562 -2.29272 3.43081 -0.570301 3.97569e-016 3.18055e-015 -1.59028e-015 4.82505 17.6986 -0.794077 177.065 -79.1248 167.902 -171.867 83.079 172.67 -7.81656 51.9997 10.3521 -0.0212334 -10.093 -0.178075 -2.98177e-016 -1.59028e-014 9.93923e-017 -7.45443e-017 9.93923e-017 -0 0 0 -3.97569e-016 -1.08567 -19.4177 1.81968 -0.171619 32.662 -0.400671 2.0523 -14.6478 6.05302 3.2545 12.9362 -1.06331 -7.45443e-017 0 3.97569e-016 -1.19271e-015 -6.36111e-015 -1.59028e-015 7.95139e-016 -1.59028e-015 -1.59028e-015 -9.93923e-017 7.95139e-016 -3.18055e-015 
25.4558 94.1769 16.6786 -5.4899 4.37213 -9.54734 4.96962e-016 -1.59028e-015 -0 4.39779 16.0622 -0.986183 7.95139e-016 -3.18055e-015 -1.59028e-015 -23.8904 -2.23828 21.7831 13.1895 -6.31877 -23.9374 0.120539 -9.85161 1.3985 -1.37395e-015 20 1.69234e-015 83 -3.18055e-015 -85 -7.95139e-016 0 -0 7.95139e-016 -3.18055e-015 -1.59028e-015 27.5738 0.269632 -21.8589 -16.2477 -8.91928 30.197 -0.0368383 5.82219 0.821112 1.40903e-015 20 1.69234e-015 -83 -3.18055e-015 85 -7.95139e-016 0 -0 7.95139e-016 -3.18055e-015 -1.59028e-015 -1.01255 21.1048 -1.63885 -2.35376 3.38831 -0.57925 7.95139e-016 -3.18055e-015 -1.59028e-015 4.82342 17.7386 -0.872626 177.96 -78.9892 169.034 -171.923 83.0295 172.723 -7.36687 52.1882 9.73882 -0.0159889 -9.17935 -0.161552 7.95139e-016 -6.36111e-015 1.98785e-016 4.09993e-016 3.97569e-016 1.59028e-015 1.59028e-015 0 5.96354e-016 -1.24201 -19.8782 1.86415 -0.155741 33.1404 -0.394025 2.0237 -14.7835 5.89747 3.06487 14.0189 -1.08207 6.4605e-016 0 3.97569e-016 -3.97569e-016 -6.36111e-015 3.18055e-015 1.98785e-015 -4.77083e-015 -0 4.96962e-016 -1.59028e-015 -0 
25.4632 94.1411 16.6728 -5.4137 4.34177 -9.50734 -9.93923e-017 -7.95139e-016 -1.59028e-015 4.31313 16.2095 -0.977485 -3.97569e-016 -6.36111e-015 3.18055e-015 -23.4135 -3.012 21.5489 13.1 -6.25069 -23.7603 0.121278 -9.88121 1.40279 3.97569e-016 20 -0 83 0 -85 3.97569e-016 0 3.18055e-015 -3.97569e-016 -6.36111e-015 3.18055e-015 27.5589 0.357121 -21.917 -16.3665 -9.03215 30.45 -0.0277926 5.52404 0.778797 -2.67482e-015 20 8.46169e-016 -83 1.27222e-014 85 3.97569e-016 0 3.18055e-015 -3.97569e-016 -6.36111e-015 3.18055e-015 -0.796103 20.9826 -1.72648 -2.41995 3.34064 -0.588196 -3.97569e-016 -6.36111e-015 3.18055e-015 4.80346 17.7792 -0.952059 178.446 -78.9429 169.662 -171.949 83.0107 172.744 -6.85179 52.3811 9.04262 -0.00980225 -7.97538 -0.140096 -1.98785e-016 -3.18055e-015 3.97569e-016 5.71506e-016 -1.98785e-016 1.59028e-015 1.59028e-015 -1.59028e-015 -0 -1.28873 -19.9168 2.01047 -0.151361 33.2572 -0.395903 1.98033 -14.8089 5.73063 3.1276 14.0725 -1.10427 -7.45443e-016 7.95139e-016 -0 1.59028e-015 0 -0 -3.97569e-015 1.59028e-015 7.95139e-016 -9.93923e-017 -7.95139e-016 -1.59028e-015 
